# xmcd CD database file
#
# Track frame offsets:
#	150
#	17168
#	40283
#	53687
#	66504
#	79189
#	95012
#	108407
#	123911
#	136908
#	151016
#	163930
#	175685
#	192549
#	205422
#	217754
#
# Disc length: 3069 seconds
#
# Revision: 0
# Processed by: cddbd v1.5.2PL0 Copyright (c) Steve Scherf et al.
# Submitted via: CDex 1.51
#
DISCID=dd0bfb10
DTITLE=Eartha Kitt - You Can Call Me Miss Kitty [CD1)
DYEAR=2006
DGENRE=Jazz
TTITLE0=Monotonous
TTITLE1=Love Is A Simple Thing
TTITLE2=Bal Petit Bal
TTITLE3=Tierra Va Tembla
TTITLE4=Callete (Caliente)
TTITLE5=I Want To Be Evil
TTITLE6=C'est Si Bon
TTITLE7=Angelitos Negros
TTITLE8=Avril Au Portugal (April In Portugal)
TTITLE9=Uska Dara
TTITLE10=African Lullaby
TTITLE11=Mountain High, Valley Low
TTITLE12=Lilac Wine
TTITLE13=Annie Doesn't Live Here Anymore
TTITLE14=Two Lovers
TTITLE15=Oh John! (Please Don't Kiss Me)
EXTD=YEAR: 2006
EXTT0=
EXTT1=
EXTT2=
EXTT3=
EXTT4=
EXTT5=
EXTT6=
EXTT7=
EXTT8=
EXTT9=
EXTT10=
EXTT11=
EXTT12=
EXTT13=
EXTT14=
EXTT15=
PLAYORDER=
